<?xml version="1.0" encoding="utf-8"?>
<!-- Generator: Adobe Illustrator 24.3.0, SVG Export Plug-In . SVG Version: 6.00 Build 0)  -->
<svg version="1.1" id="レイヤー_1" xmlns="http://www.w3.org/2000/svg" xmlns:xlink="http://www.w3.org/1999/xlink" x="0px"
	 y="0px" viewBox="0 0 170.7 163" enable-background="new 0 0 170.7 163" xml:space="preserve">
<linearGradient id="SVGID_1_" gradientUnits="userSpaceOnUse" x1="85.3405" y1="22.7028" x2="85.3405" y2="146.2858" gradientTransform="matrix(1 0 0 -1 0 166)">
	<stop  offset="0" style="stop-color:#D6ABBD"/>
	<stop  offset="1" style="stop-color:#8C579E"/>
</linearGradient>
<path fill="url(#SVGID_1_)" d="M90.1,22.7L106,54.8c0.8,1.6,2.3,2.7,4,2.9l35.4,5.1c2.9,0.4,4.9,3.2,4.5,6.1c-0.2,1.1-0.7,2.2-1.5,3
	l-25.6,25c-1.3,1.2-1.8,3-1.5,4.7l6.1,35.3c0.5,2.9-1.5,5.7-4.4,6.2c-1.2,0.2-2.3,0-3.4-0.5L87.9,126c-1.6-0.8-3.4-0.8-5,0
	l-31.7,16.7c-2.6,1.4-5.9,0.4-7.3-2.2c-0.6-1.1-0.8-2.3-0.6-3.4l6.1-35.3c0.3-1.7-0.3-3.5-1.5-4.7L22.3,72c-2.1-2.1-2.1-5.5,0-7.6
	c0.8-0.8,1.9-1.4,3-1.5l35.4-5.1c1.7-0.3,3.3-1.4,4-2.9l15.8-32.1c1.3-2.7,4.5-3.7,7.2-2.4C88.8,20.8,89.6,21.6,90.1,22.7z"/>
</svg>
