<?xml version="1.0" encoding="utf-8"?>
<!-- Generator: Adobe Illustrator 24.3.0, SVG Export Plug-In . SVG Version: 6.00 Build 0)  -->
<svg version="1.1" id="レイヤー_1" xmlns="http://www.w3.org/2000/svg" xmlns:xlink="http://www.w3.org/1999/xlink" x="0px"
	 y="0px" viewBox="0 0 142.7 145.7" enable-background="new 0 0 142.7 145.7" xml:space="preserve">
<linearGradient id="SVGID_1_" gradientUnits="userSpaceOnUse" x1="-6.034834e-04" y1="75.1076" x2="142.7008" y2="75.1076" gradientTransform="matrix(1 0 0 -1 0 148)">
	<stop  offset="0" style="stop-color:#FFFFF5"/>
	<stop  offset="1" style="stop-color:#F4ECB5"/>
</linearGradient>
<path fill="url(#SVGID_1_)" d="M89.3,11.3l12.7,19.8c1.9,2.9,4.6,5.1,7.8,6.3l21.9,8.6l-7.5,22.3c-1.1,3.2-1.1,6.7-0.1,10l7,22.5
	l-22.1,8c-3.2,1.2-6,3.3-7.9,6.2l-13.2,19.5l-20.1-12.3c-2.6-1.6-5.5-2.4-8.5-2.4c-0.4,0-0.8,0-1.3,0l-23.4,1.9l-2.9-23.3
	c-0.4-3.4-1.9-6.6-4.2-9.1L11.4,72l16.4-16.9c2.4-2.4,4-5.6,4.5-9l3.4-23.3l23.4,2.4c0.5,0.1,1.1,0.1,1.7,0.1c2.9,0,5.7-0.8,8.2-2.2
	L89.3,11.3 M90.6,0c-1.1,0-2.2,0.3-3.1,0.9L64,14.5c-1,0.6-2,0.9-3.2,0.9c-0.2,0-0.4,0-0.6,0l-27-2.8c-0.2,0-0.4,0-0.6,0
	c-3.1,0-5.7,2.3-6.2,5.4l-4,26.8c-0.2,1.3-0.8,2.5-1.7,3.5L1.8,67.5c-2.3,2.4-2.4,6.2-0.1,8.7L20.2,96c0.9,1,1.5,2.2,1.6,3.5
	l3.3,26.9c0.4,3.1,3.1,5.5,6.2,5.5h0.5l27-2.1h0.5c1.2,0,2.3,0.3,3.3,0.9l23.1,14.2c2.9,1.7,6.6,0.9,8.5-1.9l15.2-22.4
	c0.7-1.1,1.8-1.9,3.1-2.4l25.5-9.2c3.2-1.1,4.8-4.6,3.9-7.8l-8.1-25.9c-0.4-1.3-0.4-2.6,0-3.9l8.7-25.7c1.1-3.2-0.5-6.6-3.7-7.8
	l-25.2-9.8c-1.2-0.5-2.3-1.3-3-2.5L95.8,2.9C94.7,1.1,92.7,0,90.6,0z"/>
</svg>
