<?xml version="1.0" encoding="utf-8"?>
<!-- Generator: Adobe Illustrator 24.3.0, SVG Export Plug-In . SVG Version: 6.00 Build 0)  -->
<svg version="1.1" id="レイヤー_1" xmlns="http://www.w3.org/2000/svg" xmlns:xlink="http://www.w3.org/1999/xlink" x="0px"
	 y="0px" viewBox="0 0 142.7 145.7" enable-background="new 0 0 142.7 145.7" xml:space="preserve">
<linearGradient id="SVGID_1_" gradientUnits="userSpaceOnUse" x1="19.7402" y1="75.1269" x2="123" y2="75.1269" gradientTransform="matrix(1 0 0 -1 0 148)">
	<stop  offset="0" style="stop-color:#FFFFF5"/>
	<stop  offset="1" style="stop-color:#F4ECB5"/>
</linearGradient>
<path fill="url(#SVGID_1_)" d="M119.5,99l-18.4,6.7c-0.9,0.3-1.7,0.9-2.2,1.7l-11,16.2c-1.4,2-4.1,2.6-6.1,1.3L65,114.7
	c-0.8-0.5-1.8-0.7-2.7-0.7l-19.5,1.5c-2.4,0.2-4.6-1.6-4.9-4l-2.4-19.5c-0.1-0.9-0.5-1.8-1.2-2.5L21,75.3c-1.7-1.8-1.6-4.5,0.1-6.3
	l13.7-14c0.7-0.7,1.1-1.6,1.2-2.5l2.9-19.4c0.4-2.4,2.5-4.1,4.9-3.8l19.5,2c0.9,0.1,1.9-0.1,2.7-0.6L83,20.8
	c2.1-1.2,4.8-0.6,6.1,1.4l10.6,16.5c0.5,0.8,1.3,1.4,2.2,1.8l18.3,7.1c2.3,0.9,3.4,3.4,2.7,5.7l-6.3,18.6c-0.3,0.9-0.3,1.9,0,2.8
	l5.8,18.7C123,95.7,121.8,98.1,119.5,99z"/>
</svg>
