<?xml version="1.0" encoding="utf-8"?>
<!-- Generator: Adobe Illustrator 24.3.0, SVG Export Plug-In . SVG Version: 6.00 Build 0)  -->
<svg version="1.1" id="レイヤー_1" xmlns="http://www.w3.org/2000/svg" xmlns:xlink="http://www.w3.org/1999/xlink" x="0px"
	 y="0px" viewBox="0 0 142.7 145.7" enable-background="new 0 0 142.7 145.7" xml:space="preserve">
<linearGradient id="SVGID_1_" gradientUnits="userSpaceOnUse" x1="-6.033869e-04" y1="75.1269" x2="142.7408" y2="75.1269" gradientTransform="matrix(1 0 0 -1 0 148)">
	<stop  offset="0" style="stop-color:#FFFFF5"/>
	<stop  offset="1" style="stop-color:#F4ECB5"/>
</linearGradient>
<path fill="url(#SVGID_1_)" d="M137.9,108.9l-25.5,9.2c-1.2,0.5-2.3,1.3-3.1,2.4L94.2,143c-1.9,2.8-5.6,3.6-8.5,1.8l-23.1-14.2
	c-1.1-0.7-2.4-1-3.8-0.9l-27,2.1c-3.3,0.3-6.3-2.2-6.7-5.5l-3.3-26.9c-0.2-1.3-0.7-2.5-1.6-3.5L1.7,76.2c-2.3-2.5-2.2-6.3,0.1-8.7
	l18.9-19.4c0.9-0.9,1.5-2.2,1.7-3.5l4-26.8c0.5-3.3,3.5-5.7,6.8-5.3l27,2.7c1.3,0.1,2.6-0.2,3.7-0.8L87.4,0.9c2.9-1.7,6.6-0.8,8.4,2
	l14.7,22.8c0.7,1.1,1.8,2,3,2.5l25.2,9.8c3.1,1.2,4.7,4.7,3.7,7.8l-8.7,25.7c-0.4,1.3-0.4,2.6,0,3.9l8.1,25.9
	C142.8,104.4,141.1,107.8,137.9,108.9z"/>
</svg>
