<?xml version="1.0" encoding="utf-8"?>
<!-- Generator: Adobe Illustrator 24.3.0, SVG Export Plug-In . SVG Version: 6.00 Build 0)  -->
<svg version="1.1" id="レイヤー_1" xmlns="http://www.w3.org/2000/svg" xmlns:xlink="http://www.w3.org/1999/xlink" x="0px"
	 y="0px" viewBox="0 0 142.7 145.7" enable-background="new 0 0 142.7 145.7" xml:space="preserve">
<linearGradient id="SVGID_1_" gradientUnits="userSpaceOnUse" x1="24.7402" y1="75.1269" x2="118" y2="75.1269" gradientTransform="matrix(1 0 0 -1 0 148)">
	<stop  offset="0" style="stop-color:#D6ABBD"/>
	<stop  offset="1" style="stop-color:#8C579E"/>
</linearGradient>
<path fill="url(#SVGID_1_)" d="M114.8,96.4l-16.6,6c-0.8,0.3-1.5,0.8-2,1.6l-9.9,14.7c-1.2,1.8-3.7,2.3-5.5,1.2l-15.1-9.3
	c-0.7-0.5-1.6-0.7-2.5-0.6l-17.6,1.4c-2.2,0.2-4.1-1.4-4.4-3.6L39,90.3c-0.1-0.9-0.5-1.6-1.1-2.3L25.8,75c-1.5-1.6-1.5-4.1,0.1-5.7
	l12.4-12.6c0.6-0.6,1-1.4,1.1-2.3L42,36.9c0.3-2.2,2.3-3.7,4.5-3.5l17.6,1.8c0.8,0.1,1.7-0.1,2.4-0.5l15.3-8.9
	c1.9-1.1,4.3-0.5,5.5,1.3L96.9,42c0.5,0.7,1.2,1.3,2,1.6l16.5,6.4c2,0.8,3.1,3.1,2.4,5.1l-5.7,16.8c-0.3,0.8-0.3,1.7,0,2.5l5.3,16.9
	C118,93.5,116.9,95.7,114.8,96.4z"/>
</svg>
