<?xml version="1.0" encoding="utf-8"?>
<!-- Generator: Adobe Illustrator 24.3.0, SVG Export Plug-In . SVG Version: 6.00 Build 0)  -->
<svg version="1.1" id="レイヤー_1" xmlns="http://www.w3.org/2000/svg" xmlns:xlink="http://www.w3.org/1999/xlink" x="0px"
	 y="0px" viewBox="0 0 142.7 145.7" enable-background="new 0 0 142.7 145.7" xml:space="preserve">
<linearGradient id="SVGID_1_" gradientUnits="userSpaceOnUse" x1="25.7402" y1="75.1269" x2="117" y2="75.1269" gradientTransform="matrix(1 0 0 -1 0 148)">
	<stop  offset="0" style="stop-color:#93C4B6"/>
	<stop  offset="1" style="stop-color:#167A9E"/>
</linearGradient>
<path fill="url(#SVGID_1_)" d="M113.9,95.9l-16.3,5.9c-0.8,0.3-1.5,0.8-2,1.5L86,117.7c-1.2,1.8-3.6,2.3-5.4,1.2l-14.8-9.1
	c-0.7-0.4-1.6-0.6-2.4-0.6l-17.3,1.3c-2.1,0.2-4-1.4-4.3-3.5l-2.1-17.2c-0.1-0.8-0.5-1.6-1-2.2L26.8,75c-1.5-1.6-1.4-4,0.1-5.5
	L39,57.1c0.6-0.6,1-1.4,1.1-2.2l2.6-17.1c0.3-2.1,2.2-3.6,4.4-3.4l17.3,1.7c0.8,0.1,1.7-0.1,2.4-0.5l15-8.7c1.8-1.1,4.2-0.5,5.4,1.3
	l9.4,14.6c0.5,0.7,1.1,1.3,1.9,1.6l16.1,6.3c2,0.8,3,3,2.3,5L111.2,72c-0.3,0.8-0.3,1.7,0,2.5l5.2,16.5
	C117,93,115.9,95.2,113.9,95.9z"/>
</svg>
