<?xml version="1.0" encoding="utf-8"?>
<!-- Generator: Adobe Illustrator 24.3.0, SVG Export Plug-In . SVG Version: 6.00 Build 0)  -->
<svg version="1.1" id="レイヤー_1" xmlns="http://www.w3.org/2000/svg" xmlns:xlink="http://www.w3.org/1999/xlink" x="0px"
	 y="0px" viewBox="0 0 170.7 163" enable-background="new 0 0 170.7 163" xml:space="preserve">
<linearGradient id="SVGID_1_" gradientUnits="userSpaceOnUse" x1="85.3405" y1="2.9834" x2="85.3405" y2="166.0053" gradientTransform="matrix(1 0 0 -1 0 166)">
	<stop  offset="0" style="stop-color:#FFFFF5"/>
	<stop  offset="1" style="stop-color:#F4ECB5"/>
</linearGradient>
<path fill="url(#SVGID_1_)" d="M91.7,3.9l20.9,42.3c1,2.1,3,3.5,5.3,3.9l46.7,6.8c3.9,0.6,6.5,4.2,5.9,8c-0.2,1.5-0.9,2.9-2,4
	l-33.8,33c-1.7,1.6-2.4,4-2,6.2l8,46.5c0.7,3.8-1.9,7.5-5.8,8.2c-1.5,0.3-3.1,0-4.5-0.7l-41.8-22c-2.1-1.1-4.5-1.1-6.6,0l-41.8,22
	c-3.4,1.8-7.7,0.5-9.6-2.9c-0.7-1.4-1-3-0.7-4.5l8-46.5c0.4-2.3-0.4-4.6-2-6.2L2.1,69c-2.8-2.7-2.8-7.2-0.1-10c1.1-1.1,2.5-1.8,4-2
	l46.7-6.8c2.3-0.3,4.3-1.8,5.3-3.9L79,3.9c1.7-3.5,6-4.9,9.5-3.2C89.9,1.4,91,2.5,91.7,3.9z"/>
</svg>
