<?xml version="1.0" encoding="utf-8"?>
<!-- Generator: Adobe Illustrator 24.3.0, SVG Export Plug-In . SVG Version: 6.00 Build 0)  -->
<svg version="1.1" id="レイヤー_1" xmlns="http://www.w3.org/2000/svg" xmlns:xlink="http://www.w3.org/1999/xlink" x="0px"
	 y="0px" viewBox="0 0 170.7 163" enable-background="new 0 0 170.7 163" xml:space="preserve">
<linearGradient id="SVGID_1_" gradientUnits="userSpaceOnUse" x1="85.3405" y1="31.5712" x2="85.3405" y2="137.4175" gradientTransform="matrix(1 0 0 -1 0 166)">
	<stop  offset="0" style="stop-color:#93C4B6"/>
	<stop  offset="1" style="stop-color:#167A9E"/>
</linearGradient>
<path fill="url(#SVGID_1_)" d="M89.5,31.1L103,58.6c0.7,1.4,2,2.3,3.5,2.5l30.3,4.4c2.5,0.4,4.2,2.7,3.9,5.2c-0.1,1-0.6,1.9-1.3,2.6
	l-22,21.4c-1.1,1.1-1.6,2.6-1.3,4.1l5.2,30.2c0.4,2.5-1.3,4.9-3.8,5.3c-1,0.2-2,0-2.9-0.5l-27.1-14.3c-1.3-0.7-2.9-0.7-4.3,0
	l-27.1,14.3c-2.2,1.2-5,0.4-6.2-1.9c-0.5-0.9-0.6-1.9-0.5-2.9l5.2-30.2c0.2-1.5-0.2-3-1.3-4l-22-21.4c-1.8-1.8-1.8-4.7,0-6.5
	c0.7-0.7,1.6-1.2,2.6-1.3l30.3-4.4c1.5-0.2,2.8-1.2,3.5-2.5l13.6-27.5c1.1-2.3,3.9-3.2,6.1-2.1C88.3,29.5,89,30.2,89.5,31.1z"/>
</svg>
