<?xml version="1.0" encoding="utf-8"?>
<!-- Generator: Adobe Illustrator 24.3.0, SVG Export Plug-In . SVG Version: 6.00 Build 0)  -->
<svg version="1.1" id="レイヤー_1" xmlns="http://www.w3.org/2000/svg" xmlns:xlink="http://www.w3.org/1999/xlink" x="0px"
	 y="0px" viewBox="0 0 170.7 163" enable-background="new 0 0 170.7 163" xml:space="preserve">
<linearGradient id="SVGID_1_" gradientUnits="userSpaceOnUse" x1="-7.957411e-03" y1="84.4957" x2="170.6138" y2="84.4957" gradientTransform="matrix(1 0 0 -1 0 166)">
	<stop  offset="0" style="stop-color:#FFFFF5"/>
	<stop  offset="1" style="stop-color:#F4ECB5"/>
</linearGradient>
<path fill="url(#SVGID_1_)" d="M85.3,13.7l18.3,37c2.5,5,7.3,8.5,12.8,9.3l40.9,6l-29.6,28.8c-4,3.9-5.9,9.6-4.9,15.1l7,40.7
	l-36.6-19.2c-5-2.6-10.9-2.6-15.9,0l-36.5,19.2l7-40.7c1-5.5-0.9-11.2-4.9-15.1L13.4,66l40.8-6c5.6-0.8,10.4-4.3,12.8-9.3L85.3,13.7
	 M85.3,0c-2.7,0-5.2,1.5-6.3,4L58.1,46.3c-1,2.1-3,3.5-5.3,3.9L6.1,56.9c-3.9,0.5-6.5,4.1-6,8c0.2,1.6,1,3,2.1,4.1L36,102
	c1.7,1.6,2.4,4,2,6.2l-8,46.5c-0.6,3.9,2,7.5,5.9,8.1c0.4,0.1,0.7,0.1,1.1,0.1c1.1,0,2.3-0.3,3.3-0.8l41.8-22c2.1-1.1,4.5-1.1,6.6,0
	l41.8,22c3.4,1.9,7.6,0.6,9.5-2.8c0.8-1.4,1-3.1,0.7-4.7l-8-46.5c-0.4-2.3,0.3-4.6,2-6.2l33.8-33c2.8-2.7,2.8-7.2,0.1-10
	c-1.1-1.1-2.5-1.8-4-2l-46.7-6.8c-2.3-0.3-4.3-1.8-5.3-3.9L91.7,3.9C90.5,1.5,88,0,85.3,0L85.3,0z"/>
</svg>
