<?xml version="1.0" encoding="utf-8"?>
<!-- Generator: Adobe Illustrator 22.0.1, SVG Export Plug-In . SVG Version: 6.00 Build 0)  -->
<svg version="1.1" id="レイヤー_1" xmlns="http://www.w3.org/2000/svg" xmlns:xlink="http://www.w3.org/1999/xlink" x="0px"
	 y="0px" viewBox="0 0 382.27 579.73" enable-background="new 0 0 382.27 579.73" xml:space="preserve">
<g id="Body">
	<path fill="#FFEBDB" d="M236.43,512.82c1.11,9.35,1.81,18.76,2.1,28.17c0.25,7.96,0.06,16.46-4.34,23.09
		c-1.98,2.98-4.92,5.52-8.44,6.15c-4.97,0.9-10.01-2.26-12.68-6.55s-3.41-9.49-3.71-14.53c-0.5-8.32,0.04-16.71,1.58-24.9
		c0.86-4.55,2.08-9.16,4.76-12.93c2.68-3.78,7.08-6.61,11.7-6.32S236.03,509.48,236.43,512.82z"/>
	<path fill="#FFEBDB" d="M129.51,497.24c-5.03,10.42-11.27,20.25-18.57,29.23c-6.75,8.3-15.24,16.31-25.86,17.67
		c-5.77,0.74-12.76-1.54-14.27-7.15c-0.62-2.31-0.19-4.76,0.38-7.08c3.18-12.81,10.65-24.16,19.17-34.24
		c5.8-6.87,12.75-13.62,21.6-15.22c2.72-0.49,5.57-0.46,8.18,0.42c7.05,2.36,10.92,11.44,8.47,18.51
		C128.51,499.38,128.4,499.38,129.51,497.24z"/>
	<path fill="#745A8F" d="M239.61,261.15c6.47,4.58,11.36,11.02,15.93,17.5c32.84,46.55,54.78,100.11,69.72,155.09
		c5,18.39,9.27,37.29,7.18,55.57c-22.81,23.87-54.38,38.15-86.82,44.29c-32.44,6.13-65.89,4.61-98.65,0.43
		c-26.47-3.37-52.87-8.5-77.79-18.05c-24.91-9.55-48.38-23.71-66.11-43.4C36.89,386.64,76.72,370.72,108.4,331.9
		c11.91-14.6,18.24-36.61,40.96-59.32c17.08-17.08,30.89-27.07,51.04-27.07C220.44,245.51,228.16,253.05,239.61,261.15z"/>
	<g>
		<g>
			<defs>
				<path id="SVGID_1_" d="M184.08,245.47c-24.78,37.02-30.88,85.88-15.98,127.86c14.9,41.97,50.46,76.05,93.03,89.15
					c14.6,4.49,29.86,6.64,44.31,11.58c14.45,4.94,28.57,13.27,36.04,26.59c9.59,17.09,5.96,39.45-5.31,55.49
					s-28.96,26.51-47.3,33.41c-31.6,11.88-66.01,14.39-99.74,13.1c-41.41-1.57-82.6-8.69-122.13-21.1
					c-38.78-12.19-77.96-31.12-100.12-65.2c-9.91-15.25-15.88-32.83-19.01-50.74c-8.07-46.16,2.56-94.34,23.85-136.09
					c18.95-37.16,46.96-70.55,83.42-90.82s81.83-26.22,120.61-10.85c3.93,1.56,8.02,3.53,10.15,7.17
					C188.04,238.68,187.04,244.39,184.08,245.47z"/>
			</defs>
			<clipPath id="SVGID_2_">
				<use xlink:href="#SVGID_1_"  overflow="visible"/>
			</clipPath>
			<path clip-path="url(#SVGID_2_)" fill="#504D7A" d="M239.61,261.15c6.47,4.58,11.36,11.02,15.93,17.5
				c32.84,46.55,54.78,100.11,69.72,155.09c5,18.39,9.27,37.29,7.18,55.57c-22.81,23.87-54.38,38.15-86.82,44.29
				c-32.44,6.13-65.89,4.61-98.65,0.43c-26.47-3.37-52.87-8.5-77.79-18.05c-24.91-9.55-48.38-23.71-66.11-43.4
				C36.89,386.64,76.72,370.72,108.4,331.9c11.91-14.6,18.24-36.61,40.96-59.32c17.08-17.08,30.89-27.07,51.04-27.07
				C220.44,245.51,228.16,253.05,239.61,261.15z"/>
		</g>
	</g>
</g>
<g id="Face">
	<path fill="#FFEBDB" d="M232.61,100.26c10.5,2.7,19.04,10.43,25.49,19.15c12.09,16.34,18.16,37.04,16.8,57.33
		c-0.28,4.11-0.83,8.34,0.4,12.27c1.16,3.72,3.82,6.81,5.12,10.49c2.03,5.74,0.48,12.14-1.93,17.73
		c-7.74,17.94-24.56,31.53-43.59,35.93s-39.84-0.27-56.27-11.05c-22.31-16.27-33.6-46.31-27.54-73.24
		c3.22-14.29,10.75-27.25,19.26-39.18c7.43-10.42,15.92-20.46,26.98-26.88S221.11,97.3,232.61,100.26z"/>
	<path fill="#E38F86" d="M243.27,237.9c-3.11,0.37-6.3,0.74-9.35-0.01c-3.04-0.75-5.96-2.86-6.74-5.89
		c-0.72-2.78,0.47-5.72,2.05-8.12c4.39-6.67,13.04-11.02,20.58-8.4s11.3,13.65,5.59,19.23C251.67,238.36,245.85,238.55,243.27,237.9
		z"/>
	<path fill="#504D7A" d="M257.11,192.41c0.13,4.05,0.16,9.78-1.7,11.42c-1.59,1.4-4.31,1.17-5.27-1.71s-1.1-6.6-0.89-10.04
		c0.54-8.74,1.15-15.68,4.18-15.68C255.63,176.39,256.77,181.75,257.11,192.41z"/>
</g>
<g id="Hand">
	<g>
		<path fill="#FFEBDB" d="M329.28,208.7c5.55,0.83,10.9-2.04,15.78-4.8c3.72-2.11,7.45-4.23,11.17-6.34
			c1.29-0.73,2.67-1.49,4.16-1.47c3.65,0.05,5.56,4.63,5.04,8.24c-0.63,4.31-3.25,8.03-5.88,11.5c-3.64,4.79-7.54,9.53-12.58,12.81
			c-5.04,3.28-11.46,4.93-17.18,3.07c-5.72-1.86-10.21-7.86-9.13-13.78C321.51,213.19,325.98,208.21,329.28,208.7z"/>
		<path fill="#745A8F" d="M189.35,252.8c18.66-5.75,39.26-2.35,57.81-8.44c28.28-9.29,47.07-38.93,76.14-45.36
			c1.53-0.34,3.12-0.6,4.64-0.27c1.75,0.39,3.24,1.53,4.51,2.79c5.48,5.44,7.84,13.21,9.86,20.66c6.73,24.84,11.94,50.64,9,76.2
			c-2.94,25.57-15.11,51.13-36.78,65.01c-17.69,11.33-39.97,13.83-60.75,10.71s-40.4-11.43-59.39-20.43
			c-10.08-4.78-20.18-9.86-28.64-17.14c-8.46-7.29-15.22-17.08-16.79-28.13c-2.19-15.48,6.13-30.79,17.21-41.81
			C173.31,259.48,182.39,254.95,189.35,252.8z"/>
		<g>
			<g>
				<defs>
					<path id="SVGID_3_" d="M186.43,248.06c-5.73,0.6-10.1,6.02-11.01,11.71c-0.91,5.69,1,11.48,3.65,16.59
						c10.79,20.77,33.82,33.22,57.06,36.04s46.72-2.79,68.76-10.68c19.9-7.13,39.77-16.3,60.91-16.37
						c4.43-0.01,9.09,0.45,12.74,2.95c5.92,4.04,7.45,11.99,8.22,19.12c1.69,15.65,2.01,31.96-3.75,46.62
						c-9.99,25.4-36.12,40.69-62.01,49.32c-24.78,8.26-51.67,12.19-77.1,6.23c-19.23-4.51-36.72-14.42-53.41-24.96
						c-34.55-21.83-68.12-48.19-86.61-84.63c-4.18-8.23-7.58-17.14-7.56-26.37c0.04-14.29,8.65-27.78,20.57-35.67
						s26.73-10.63,40.99-9.77c6.28,0.38,12.74,1.5,17.96,5C181.07,236.68,184.78,243.03,186.43,248.06z"/>
				</defs>
				<clipPath id="SVGID_4_">
					<use xlink:href="#SVGID_3_"  overflow="visible"/>
				</clipPath>
				<path clip-path="url(#SVGID_4_)" fill="#504D7A" d="M189.35,252.8c18.66-5.75,39.26-2.35,57.81-8.44
					c28.28-9.29,47.07-38.93,76.14-45.36c1.53-0.34,3.12-0.6,4.64-0.27c1.75,0.39,3.24,1.53,4.51,2.79
					c5.48,5.44,7.84,13.21,9.86,20.66c6.73,24.84,11.94,50.64,9,76.2c-2.94,25.57-15.11,51.13-36.78,65.01
					c-17.69,11.33-39.97,13.83-60.75,10.71s-40.4-11.43-59.39-20.43c-10.08-4.78-20.18-9.86-28.64-17.14
					c-8.46-7.29-15.22-17.08-16.79-28.13c-2.19-15.48,6.13-30.79,17.21-41.81C173.31,259.48,182.39,254.95,189.35,252.8z"/>
			</g>
		</g>
	</g>
	<g>
		<path fill="#D9D0B2" d="M365.45,292.92c-0.27,0.03-0.55,0.03-0.84-0.01c-1.81-0.26-3.06-1.93-2.8-3.74
			c10.27-71.79,0.27-144.98-28.93-211.66c-0.73-1.67,0.03-3.62,1.7-4.35c1.67-0.73,3.62,0.03,4.35,1.7
			c29.69,67.81,39.86,142.24,29.42,215.24C368.13,291.63,366.91,292.76,365.45,292.92z"/>
		<path fill="#FFDD63" d="M317.91,18.79l13.18,17.55c1.06,1.41,2.92,1.97,4.58,1.37l20.12-7.23c3.63-1.3,6.84,2.74,4.74,5.98
			L348.48,55.1c-0.92,1.42-0.85,3.26,0.16,4.61l13.54,18.02c2.36,3.14-0.7,7.45-4.44,6.26l-20.24-6.43
			c-1.73-0.55-3.62,0.13-4.6,1.65l-11.53,17.84c-2.13,3.29-7.23,1.91-7.41-2.01l-1.01-22.52c-0.08-1.69-1.2-3.15-2.8-3.66L289,62.15
			c-3.67-1.17-3.77-6.33-0.14-7.63l20.12-7.23c1.66-0.6,2.74-2.21,2.66-3.97l-0.99-21.93C310.49,17.44,315.53,15.63,317.91,18.79z"
			/>
	</g>
</g>
<g id="Head">
	<g>
		<path fill="#787575" d="M273.59,111.48c-6.2-10.74-17.45-17.65-29.01-22.13c-6.73-2.6-13.79-4.55-21-4.81
			c-8.91-0.32-17.8,1.97-25.82,5.87c-21.59,10.5-36.24,32.14-42.97,55.19c-0.79,2.69-1.45,5.49-1.93,8.33
			c-14.28,21.21-28.82,42.22-47.69,59.31c-17.47,15.83-38.71,28.41-50.95,48.56c-8.32,13.7-11.74,30.78-7.19,46.15
			c4.12,13.92,15.34,25.92,29.2,29.8c-10.86,8.79-24.25,14.62-37.52,19.44c-7.56,2.75-15.52,5.47-21.02,11.34
			c-1.88,2-3.45,4.44-3.79,7.16c-0.37,2.97,0.76,5.92,2.11,8.6c8.1,16.04,25.48,26.95,43.44,27.28c3.58,0.06,7.28-0.29,10.43-2
			c4.03-2.18,6.63-6.25,8.86-10.25c8.88-15.94,14.69-33.55,17.25-51.61c3.89,0.61,7.98,0.64,11.86,0.5
			c11.47-0.44,23.04-1.62,33.86-5.42c25.37-8.9,44.16-31.58,53.8-56.68s11.19-52.55,10.71-79.43c-0.11-6.34-0.35-12.69-0.68-19.02
			c2.63,0.14,5.31-0.25,7.76-1.13c6.48-2.31,11.6-7.37,15.84-12.78c13.22-16.88,19.79-38.83,18.02-60.19
			c11.14,7.95,20.19,19.31,23.19,32.21C279.5,137.36,279.79,122.22,273.59,111.48z"/>
	</g>
	<g>
		<g>
			<defs>
				<path id="SVGID_5_" d="M241.41,80.8c-4.42-0.73-8.85-1.46-13.27-2.19c-12.22-2.02-25.92,5.22-37.67,14.47
					c-33.77,26.58-67.54,53.17-101.31,79.75c-19.58,15.42-39.3,30.96-55.59,49.83S4.46,264.15,1.06,288.84
					c-2.19,15.9-0.15,32.92,8.79,46.24c3.95,5.88,9.41,10.85,15.63,14.27c-0.83,0.35-1.67,0.7-2.49,1.07
					c-8.49,3.79-16.63,8.95-22.11,16.45s-7.9,17.69-4.51,26.34c1.26,3.21,3.56,6.33,6.9,7.17c4.35,1.1,8.55-1.93,12.04-4.75
					c14.76-11.93,32.17-23.97,50.98-21.45c5.26,0.71,10.38,2.55,15.69,2.59c5.31,0.04,11.21-2.39,12.93-7.42
					c2.32-6.79-3.89-13.25-9.48-17.75c2.19,0.55,2.38,0.55,2.57,0.55c-2.85-6.4-9.91-9.15-17.06-10.07
					c9.69-9.98,16.22-24.44,21.83-37.6c13.56-31.76,29.46-62.71,49.92-90.53c25.27-34.34,57.05-63.34,84-96.38
					C235.32,106.99,243.91,94.21,241.41,80.8z"/>
			</defs>
			<clipPath id="SVGID_6_">
				<use xlink:href="#SVGID_5_"  overflow="visible"/>
			</clipPath>
			<path clip-path="url(#SVGID_6_)" fill="#6B6066" d="M273.59,111.48c-6.2-10.74-17.45-17.65-29.01-22.13
				c-6.73-2.6-13.79-4.55-21-4.81c-8.91-0.32-17.8,1.97-25.82,5.87c-21.59,10.5-36.24,32.14-42.97,55.19
				c-0.79,2.69-1.45,5.49-1.93,8.33c-14.28,21.21-28.82,42.22-47.69,59.31c-17.47,15.83-38.71,28.41-50.95,48.56
				c-8.32,13.7-11.74,30.78-7.19,46.15c4.12,13.92,15.34,25.92,29.2,29.8c-10.86,8.79-24.25,14.62-37.52,19.44
				c-7.56,2.75-15.52,5.47-21.02,11.34c-1.88,2-3.45,4.44-3.79,7.16c-0.37,2.97,0.76,5.92,2.11,8.6
				c8.1,16.04,25.48,26.95,43.44,27.28c3.58,0.06,7.28-0.29,10.43-2c4.03-2.18,6.63-6.25,8.86-10.25
				c8.88-15.94,14.69-33.55,17.25-51.61c3.89,0.61,7.98,0.64,11.86,0.5c11.47-0.44,23.04-1.62,33.86-5.42
				c25.37-8.9,44.16-31.58,53.8-56.68s11.19-52.55,10.71-79.43c-0.11-6.34-0.35-12.69-0.68-19.02c2.63,0.14,5.31-0.25,7.76-1.13
				c6.48-2.31,11.6-7.37,15.84-12.78c13.22-16.88,19.79-38.83,18.02-60.19c11.14,7.95,20.19,19.31,23.19,32.21
				C279.5,137.36,279.79,122.22,273.59,111.48z"/>
		</g>
	</g>
	<g>
		
			<ellipse transform="matrix(0.7686 -0.6397 0.6397 0.7686 -57.422 125.928)" fill="#745A8F" cx="145.37" cy="142.34" rx="121.5" ry="42"/>
		<path fill="#504D7A" d="M193.39,86.64c-4.33-6.37-14.57-10.02-24.25-10.68c-0.36-0.02-0.72-0.03-1.08-0.05
			c-15.82,8.64-32.81,20.2-49.56,34.15c-44.6,37.12-72.9,78.97-70.14,101.14c18.3-3.41,35.67-13.02,51.6-23.2
			c33.43-21.36,65.01-46.59,88.54-78.53C193.44,102.77,198.06,93.53,193.39,86.64z"/>
		<path fill="#504D7A" d="M198.52,79.43c2.76,5.33-0.11,11.97-2.76,17.35c-4.59,9.31-11.42,17.3-18.25,25.11
			c-20.45,23.37-42.89,46.96-72.26,57.04c-3.65,1.25-7.58,2.29-11.34,1.41s-7.18-4.3-5.49-7.83C77,121.05,65.12,69.7,52.77,18.46
			c-0.87-3.59-1.7-7.54-0.04-10.84c1.65-3.3,6.99-4.75,9.25-1.37C105.25,23.99,193.3,69.34,198.52,79.43z"/>
		<g>
			<g>
				<defs>
					<path id="SVGID_7_" d="M50.44,7.73c22.31,10.81,36.15,22.85,49.79,36.5c25.06,25.06,16.52,44.19,49.24,66.73
						c14.86,10.23,45.27-20.22,51.84-30.03c5.49-8.2,1.53-19.51-4.56-27.27c-5.97-7.59-13.72-13.56-21.56-19.2
						C153.83,19.1,131.14,5.58,107.46-5.89C44.52-36.37,47.55,6.34,50.44,7.73z"/>
				</defs>
				<clipPath id="SVGID_8_">
					<use xlink:href="#SVGID_7_"  overflow="visible"/>
				</clipPath>
				<path clip-path="url(#SVGID_8_)" fill="#745A8F" d="M198.52,79.43c2.76,5.33-0.11,11.97-2.76,17.35
					c-4.59,9.31-11.42,17.3-18.25,25.11c-20.45,23.37-42.89,46.96-72.26,57.04c-3.65,1.25-7.58,2.29-11.34,1.41s-7.18-4.3-5.49-7.83
					C77,121.05,65.12,69.7,52.77,18.46c-0.87-3.59-1.7-7.54-0.04-10.84c1.65-3.3,6.99-4.75,9.25-1.37
					C105.25,23.99,193.3,69.34,198.52,79.43z"/>
			</g>
		</g>
	</g>
	<g>
		<path fill="#FFDD63" d="M94.84,343.64c18.69-9.59,42.15-9.19,60.51,1.02c0.56,0.31,1.13,0.65,1.45,1.2
			c0.59,1.03,0.06,2.33-0.47,3.4c-3.68,7.53-6.74,15.37-9.14,23.41c-2.04,6.85-3.84,14.26-9.09,19.1
			c-6.64,6.13-17.2,6.24-25.49,2.63s-14.81-10.26-21.02-16.82c-4.73-5-9.74-10.92-9.2-17.78C83,352.02,89.96,346.14,94.84,343.64z"
			/>
		<path fill="#F5BE40" d="M87.73,356c9.19-1.5,18.59,0.75,27.37,3.87c6.14,2.18,12.15,4.81,17.61,8.36
			c0.95,0.62,1.89,1.27,2.74,2.01c0.45,0.39,0.9,0.86,0.94,1.45c0.08,0.99-1.1,1.7-2.08,1.56s-1.79-0.82-2.58-1.44
			c-2.96-2.34-6.35-4.14-9.94-5.27c-1.93-0.61-3.96-1.04-5.98-0.93c-2.89,0.15-5.62,1.36-8.46,1.94
			c-7.06,1.44-14.83-1.37-19.33-7.01c-0.6-0.75-1.15-1.58-1.23-2.54S87.29,356.07,87.73,356z"/>
		<path fill="#FFDD63" d="M78.37,347.69c2.14-19.72-7.5-40.28-24.04-51.24c-5.24-3.47-11.03-6.01-16.79-8.52
			c-3.24-1.42-6.48-2.83-9.72-4.25c-0.57-0.25-1.16-0.5-1.79-0.54c-2.14-0.13-3.54,2.17-4.24,4.19
			c-3.94,11.44-1.58,24.01-2.97,36.02c-0.62,5.36-1.98,10.6-2.64,15.95c-0.2,1.61-0.32,3.28,0.21,4.81c0.68,1.96,2.33,3.4,4,4.63
			c8.6,6.34,19.49,9.5,30.15,8.76c6.99-0.49,14.1-2.57,20.88-0.8c1.16,0.3,2.35,0.72,3.54,0.54C78.85,356.63,78,351.13,78.37,347.69
			z"/>
		<path fill="#F5BE40" d="M71.78,343.68c-9.64-10.57-20.85-19.81-33.52-26.44c-2.07-1.09-4.32-2.13-6.65-1.89
			c-0.42,0.04-0.89,0.16-1.13,0.51c-0.53,0.8,0.54,1.68,1.41,2.08c4.74,2.22,8.8,5.88,11.5,10.37c1.01,1.68,1.83,3.47,2.83,5.15
			c1.74,2.92,4.02,5.49,6.37,7.94c2.54,2.65,5.26,5.23,8.57,6.82c2.98,1.43,6.38,1.99,9.66,1.58c0.95-0.12,2.12-0.24,2.61-1.06
			C74.36,347.23,72.69,344.68,71.78,343.68z"/>
		<path fill="#FFDD63" d="M77.62,338.5c-3.28,0.8-6.75,8.29-8.88,13.42c-1.21,2.91-3.46,4.93-1.74,7.57
			c1.19,1.81,11.93,10.92,16.44,7.57c3.17-2.36,3.78-5.3,4.63-8.6c0.5-1.94,2.96-9.86,2.36-12.17
			C89.93,344.36,81.05,337.66,77.62,338.5z"/>
		<g>
			<g>
				<defs>
					<path id="SVGID_9_" d="M90.79,345.86c-0.26-0.37-0.87-0.32-1.21-0.01s-0.47,0.77-0.6,1.21c-0.68,2.35-1.58,4.76-3.36,6.44
						c-1.96,1.85-4.75,2.58-7.44,2.67c-2.69,0.1-5.37-0.37-8.06-0.58c-0.81-0.06-1.64-0.1-2.42,0.11s-1.53,0.71-1.85,1.45
						c-0.58,1.35,0.38,2.85,1.41,3.9c2.65,2.71,6,4.62,9.35,6.38c2.06,1.08,4.17,2.14,6.46,2.57c1.2,0.23,2.59,0.22,3.45-0.64
						c0.41-0.41,0.65-0.96,0.86-1.5c2.21-5.49,3.76-11.23,4.63-17.08c0.15-1.04,0.29-2.11,0.05-3.14c-0.23-1.03-0.9-2.02-1.93-2.34
						c0,0.01,0,0.03,0,0.04C90.12,345.36,90.1,345.38,90.79,345.86z"/>
				</defs>
				<clipPath id="SVGID_10_">
					<use xlink:href="#SVGID_9_"  overflow="visible"/>
				</clipPath>
				<path clip-path="url(#SVGID_10_)" fill="#F5BE40" d="M77.62,338.5c-3.28,0.8-6.75,8.29-8.88,13.42
					c-1.21,2.91-3.46,4.93-1.74,7.57c1.19,1.81,11.93,10.92,16.44,7.57c3.17-2.36,3.78-5.3,4.63-8.6c0.5-1.94,2.96-9.86,2.36-12.17
					C89.93,344.36,81.05,337.66,77.62,338.5z"/>
			</g>
			<g>
				<defs>
					<path id="SVGID_11_" d="M90.79,345.86c-0.26-0.37-0.87-0.32-1.21-0.01s-0.47,0.77-0.6,1.21c-0.68,2.35-1.58,4.76-3.36,6.44
						c-1.96,1.85-4.75,2.58-7.44,2.67c-2.69,0.1-5.37-0.37-8.06-0.58c-0.81-0.06-1.64-0.1-2.42,0.11s-1.53,0.71-1.85,1.45
						c-0.58,1.35,0.38,2.85,1.41,3.9c2.65,2.71,6,4.62,9.35,6.38c2.06,1.08,4.17,2.14,6.46,2.57c1.2,0.23,2.59,0.22,3.45-0.64
						c0.41-0.41,0.65-0.96,0.86-1.5c2.21-5.49,3.76-11.23,4.63-17.08c0.15-1.04,0.29-2.11,0.05-3.14c-0.23-1.03-0.9-2.02-1.93-2.34
						c0,0.01,0,0.03,0,0.04C90.12,345.36,90.1,345.38,90.79,345.86z"/>
				</defs>
				<clipPath id="SVGID_12_">
					<use xlink:href="#SVGID_11_"  overflow="visible"/>
				</clipPath>
				<path clip-path="url(#SVGID_12_)" fill="none" d="M35.44-1.56c5.57-1.92,11.35,1.88,15.97,5.53
					c19.37,15.29,38.12,32,51.33,52.84c9.03,14.25,15.37,30.27,26.16,43.22c7.19,8.63,16.26,15.69,26.38,20.55
					c5.14,2.47,10.69,4.4,16.39,4.37c7.62-0.05,14.76-3.57,21.31-7.46c11.49-6.84,22.73-15.93,26.66-28.7
					c3.93-12.79-0.46-27.04-8.59-37.65s-19.59-18.16-31.23-24.75c-38.8-21.97-82.3-35.61-126.7-39.72
					c-5.68-0.53-12.08-0.67-16.3,3.17C34.3-7.87,33.49-2.96,35.44-1.56z"/>
			</g>
		</g>
	</g>
</g>
</svg>
