<?xml version="1.0" encoding="utf-8"?>
<!-- Generator: Adobe Illustrator 24.3.0, SVG Export Plug-In . SVG Version: 6.00 Build 0)  -->
<svg version="1.1" id="レイヤー_1" xmlns="http://www.w3.org/2000/svg" xmlns:xlink="http://www.w3.org/1999/xlink" x="0px"
	 y="0px" viewBox="0 0 382.3 579.7" enable-background="new 0 0 382.3 579.7" xml:space="preserve">
<g id="Body">
	<path fill="#FFEBDB" d="M236.4,512.8c1.1,9.3,1.8,18.8,2.1,28.2c0.2,8,0.1,16.5-4.3,23.1c-2,3-4.9,5.5-8.4,6.2
		c-5,0.9-10-2.3-12.7-6.5s-3.4-9.5-3.7-14.5c-0.5-8.3,0-16.7,1.6-24.9c0.9-4.5,2.1-9.2,4.8-12.9c2.7-3.8,7.1-6.6,11.7-6.3
		S236,509.5,236.4,512.8z"/>
	<path fill="#FFEBDB" d="M129.5,497.2c-5,10.4-11.3,20.2-18.6,29.2c-6.8,8.3-15.2,16.3-25.9,17.7c-5.8,0.7-12.8-1.5-14.3-7.2
		c-0.6-2.3-0.2-4.8,0.4-7.1c3.2-12.8,10.7-24.2,19.2-34.2c5.8-6.9,12.8-13.6,21.6-15.2c2.7-0.5,5.6-0.5,8.2,0.4
		c7.1,2.4,10.9,11.4,8.5,18.5C128.5,499.4,128.4,499.4,129.5,497.2z"/>
	<path fill="#745A8F" d="M239.6,261.1c6.5,4.6,11.4,11,15.9,17.5c32.8,46.5,54.8,100.1,69.7,155.1c5,18.4,9.3,37.3,7.2,55.6
		c-22.8,23.9-54.4,38.2-86.8,44.3c-32.4,6.1-65.9,4.6-98.6,0.4c-26.5-3.4-52.9-8.5-77.8-18s-48.4-23.7-66.1-43.4
		c33.8-85.9,73.7-101.9,105.3-140.7c11.9-14.6,18.2-36.6,41-59.3c17.1-17.1,30.9-27.1,51-27.1C220.4,245.5,228.2,253.1,239.6,261.1z
		"/>
	<path fill="#504D7A" d="M245.6,533.6c32.4-6.1,64-20.4,86.8-44.3c-7.5-7-17.2-11.9-27-15.3c-14.5-4.9-29.7-7.1-44.3-11.6
		c-42.6-13.1-78.1-47.2-93-89.1c-14.5-40.7-9.1-88,13.9-124.6c-11.3,4.2-21.2,12.5-32.6,23.8c-22.7,22.7-29,44.7-41,59.3
		C76.7,370.7,36.9,386.6,3.1,472.6c17.7,19.7,41.2,33.9,66.1,43.4s51.3,14.7,77.8,18C179.7,538.2,213.2,539.7,245.6,533.6z"/>
</g>
<g id="Face">
	<path fill="#FFEBDB" d="M232.6,100.3c10.5,2.7,19,10.4,25.5,19.2c12.1,16.3,18.2,37,16.8,57.3c-0.3,4.1-0.8,8.3,0.4,12.3
		c1.2,3.7,3.8,6.8,5.1,10.5c2,5.7,0.5,12.1-1.9,17.7c-7.7,17.9-24.6,31.5-43.6,35.9c-19,4.4-39.8-0.3-56.3-11.1
		c-22.3-16.3-33.6-46.3-27.5-73.2c3.2-14.3,10.8-27.2,19.3-39.2c7.4-10.4,15.9-20.5,27-26.9S221.1,97.3,232.6,100.3z"/>
	<path fill="#E38F86" d="M243.3,237.9c-3.1,0.4-6.3,0.7-9.4,0c-3-0.8-6-2.9-6.7-5.9c-0.7-2.8,0.5-5.7,2.1-8.1
		c4.4-6.7,13-11,20.6-8.4s11.3,13.6,5.6,19.2C251.7,238.4,245.9,238.6,243.3,237.9z"/>
	<path fill="#504D7A" d="M257.1,192.4c0.1,4.1,0.2,9.8-1.7,11.4c-1.6,1.4-4.3,1.2-5.3-1.7s-1.1-6.6-0.9-10
		c0.5-8.7,1.1-15.7,4.2-15.7C255.6,176.4,256.8,181.8,257.1,192.4z"/>
</g>
<g id="Hand">
	<g>
		<path fill="#FFEBDB" d="M329.3,208.7c5.5,0.8,10.9-2,15.8-4.8c3.7-2.1,7.5-4.2,11.2-6.3c1.3-0.7,2.7-1.5,4.2-1.5
			c3.6,0.1,5.6,4.6,5,8.2c-0.6,4.3-3.2,8-5.9,11.5c-3.6,4.8-7.5,9.5-12.6,12.8c-5,3.3-11.5,4.9-17.2,3.1c-5.7-1.9-10.2-7.9-9.1-13.8
			C321.5,213.2,326,208.2,329.3,208.7z"/>
		<path fill="#745A8F" d="M189.4,252.8c18.7-5.8,39.3-2.4,57.8-8.4c28.3-9.3,47.1-38.9,76.1-45.4c1.5-0.3,3.1-0.6,4.6-0.3
			c1.8,0.4,3.2,1.5,4.5,2.8c5.5,5.4,7.8,13.2,9.9,20.7c6.7,24.8,11.9,50.6,9,76.2s-15.1,51.1-36.8,65c-17.7,11.3-40,13.8-60.8,10.7
			s-40.4-11.4-59.4-20.4c-10.1-4.8-20.2-9.9-28.6-17.1c-8.5-7.3-15.2-17.1-16.8-28.1c-2.2-15.5,6.1-30.8,17.2-41.8
			C173.3,259.5,182.4,254.9,189.4,252.8z"/>
		<path fill="#504D7A" d="M351.3,298.4c0.5-3.9,0.7-7.8,0.8-11.8c-16.1,2.7-31.7,9.5-47.2,15.1c-22,7.9-45.5,13.5-68.8,10.7
			s-46.3-15.3-57.1-36c-2.7-5.1-4.6-10.9-3.7-16.6c0-0.2,0.1-0.4,0.1-0.6c-3.3,2-6.5,4.5-9.4,7.4c-11.1,11-19.4,26.3-17.2,41.8
			c1.6,11,8.3,20.8,16.8,28.1c8.5,7.3,18.6,12.4,28.6,17.1c19,9,38.6,17.3,59.4,20.4c20.8,3.1,43.1,0.6,60.8-10.7
			C336.2,349.5,348.4,324,351.3,298.4z"/>
	</g>
	<g>
		<path fill="#D9D0B2" d="M365.5,292.9c-0.3,0-0.5,0-0.8,0c-1.8-0.3-3.1-1.9-2.8-3.7c10.3-71.8,0.3-145-28.9-211.7
			c-0.7-1.7,0-3.6,1.7-4.3c1.7-0.7,3.6,0,4.4,1.7c29.7,67.8,39.9,142.2,29.4,215.2C368.1,291.6,366.9,292.8,365.5,292.9z"/>
		<path fill="#FFDD63" d="M317.9,18.8l13.2,17.5c1.1,1.4,2.9,2,4.6,1.4l20.1-7.2c3.6-1.3,6.8,2.7,4.7,6l-12,18.6
			c-0.9,1.4-0.9,3.3,0.2,4.6l13.5,18c2.4,3.1-0.7,7.4-4.4,6.3l-20.2-6.4c-1.7-0.6-3.6,0.1-4.6,1.7l-11.5,17.8
			c-2.1,3.3-7.2,1.9-7.4-2l-1-22.5c-0.1-1.7-1.2-3.2-2.8-3.7L289,62.2c-3.7-1.2-3.8-6.3-0.1-7.6l20.1-7.2c1.7-0.6,2.7-2.2,2.7-4
			l-1-21.9C310.5,17.4,315.5,15.6,317.9,18.8z"/>
	</g>
</g>
<g id="Head">
	<path fill="#787575" d="M273.6,111.5c-6.2-10.7-17.5-17.7-29-22.1c-6.7-2.6-13.8-4.6-21-4.8c-8.9-0.3-17.8,2-25.8,5.9
		c-21.6,10.5-36.2,32.1-43,55.2c-0.8,2.7-1.4,5.5-1.9,8.3c-14.3,21.2-28.8,42.2-47.7,59.3c-17.5,15.8-38.7,28.4-51,48.6
		c-8.3,13.7-11.7,30.8-7.2,46.1c4.1,13.9,15.3,25.9,29.2,29.8c-10.9,8.8-24.2,14.6-37.5,19.4c-7.6,2.8-15.5,5.5-21,11.3
		c-1.9,2-3.4,4.4-3.8,7.2c-0.4,3,0.8,5.9,2.1,8.6c8.1,16,25.5,27,43.4,27.3c3.6,0.1,7.3-0.3,10.4-2c4-2.2,6.6-6.2,8.9-10.2
		c8.9-15.9,14.7-33.5,17.2-51.6c3.9,0.6,8,0.6,11.9,0.5c11.5-0.4,23-1.6,33.9-5.4c25.4-8.9,44.2-31.6,53.8-56.7s11.2-52.6,10.7-79.4
		c-0.1-6.3-0.4-12.7-0.7-19c2.6,0.1,5.3-0.2,7.8-1.1c6.5-2.3,11.6-7.4,15.8-12.8c13.2-16.9,19.8-38.8,18-60.2
		c11.1,7.9,20.2,19.3,23.2,32.2C279.5,137.4,279.8,122.2,273.6,111.5z"/>
	<path fill="#6B6066" d="M85.4,351.6c2.2,0.5,2.4,0.5,2.6,0.5c-2.8-6.4-9.9-9.2-17.1-10.1c0.4-0.4,0.7-0.8,1-1.1
		c-10,7-21.7,12-33.3,16.2c-7.6,2.8-15.5,5.5-21,11.3c-1.9,2-3.5,4.4-3.8,7.2c-0.4,3,0.8,5.9,2.1,8.6c1.3,2.5,2.8,5,4.5,7.2
		C34,381,49.5,371.8,66.2,374.1c5.3,0.7,10.4,2.5,15.7,2.6c2.5,0,5.2-0.5,7.5-1.6c1.6-4.8,3-9.7,4.2-14.7
		C91.7,357.1,88.5,354,85.4,351.6z"/>
	<path fill="#6B6066" d="M226.7,117.6c7-8.6,14-18.6,15-29.3c-5.9-2.1-11.9-3.5-18.1-3.8c-8.9-0.3-17.8,2-25.8,5.9
		c-21.6,10.5-36.2,32.1-43,55.2c-0.8,2.7-1.5,5.5-1.9,8.3c-14.3,21.2-28.8,42.2-47.7,59.3c-17.5,15.8-38.7,28.4-51,48.6
		c-8.3,13.7-11.7,30.8-7.2,46.2c4,13.5,14.7,25.2,28,29.4c7.5-9.5,13-21.7,17.7-32.9c13.6-31.8,29.5-62.7,49.9-90.5
		C168,179.6,199.7,150.6,226.7,117.6z"/>
	<g>
		
			<ellipse transform="matrix(0.7686 -0.6397 0.6397 0.7686 -57.3867 125.9139)" fill="#745A8F" cx="145.4" cy="142.3" rx="121.5" ry="42"/>
		<path fill="#504D7A" d="M198.5,79.4C193.3,69.3,105.2,24,62,6.2c-2.3-3.4-7.6-1.9-9.2,1.4c-1.7,3.3-0.8,7.2,0,10.8
			C63,60.5,72.8,102.8,82.3,145c-22.9,26.1-35.8,50.8-33.9,66.1c18.3-3.4,35.7-13,51.6-23.2c33.4-21.4,65-46.6,88.5-78.5
			c1.9-2.6,3.8-5.6,5.1-8.6c0.8-1.3,1.5-2.7,2.2-4C198.4,91.4,201.3,84.8,198.5,79.4z"/>
		<path fill="#745A8F" d="M199.6,83.3c-0.1-1.3-0.4-2.6-1.1-3.8C193.3,69.3,105.2,24,62,6.2c-2.3-3.4-7.6-1.9-9.2,1.4
			c-0.2,0.3-0.3,0.7-0.4,1C73.5,19.2,87,31,100.2,44.2c25.1,25.1,16.5,44.2,49.2,66.7C163.3,120.5,190.6,94.8,199.6,83.3z"/>
	</g>
	<g>
		<path fill="#FFDD63" d="M94.8,343.6c18.7-9.6,42.1-9.2,60.5,1c0.6,0.3,1.1,0.6,1.4,1.2c0.6,1,0.1,2.3-0.5,3.4
			c-3.7,7.5-6.7,15.4-9.1,23.4c-2,6.9-3.8,14.3-9.1,19.1c-6.6,6.1-17.2,6.2-25.5,2.6s-14.8-10.3-21-16.8c-4.7-5-9.7-10.9-9.2-17.8
			C83,352,90,346.1,94.8,343.6z"/>
		<path fill="#F5BE40" d="M87.7,356c9.2-1.5,18.6,0.8,27.4,3.9c6.1,2.2,12.2,4.8,17.6,8.4c0.9,0.6,1.9,1.3,2.7,2
			c0.4,0.4,0.9,0.9,0.9,1.5c0.1,1-1.1,1.7-2.1,1.6s-1.8-0.8-2.6-1.4c-3-2.3-6.3-4.1-9.9-5.3c-1.9-0.6-4-1-6-0.9
			c-2.9,0.1-5.6,1.4-8.5,1.9c-7.1,1.4-14.8-1.4-19.3-7c-0.6-0.8-1.2-1.6-1.2-2.5S87.3,356.1,87.7,356z"/>
		<path fill="#FFDD63" d="M78.4,347.7c2.1-19.7-7.5-40.3-24-51.2c-5.2-3.5-11-6-16.8-8.5c-3.2-1.4-6.5-2.8-9.7-4.2
			c-0.6-0.2-1.2-0.5-1.8-0.5c-2.1-0.1-3.5,2.2-4.2,4.2c-3.9,11.4-1.6,24-3,36c-0.6,5.4-2,10.6-2.6,16c-0.2,1.6-0.3,3.3,0.2,4.8
			c0.7,2,2.3,3.4,4,4.6c8.6,6.3,19.5,9.5,30.2,8.8c7-0.5,14.1-2.6,20.9-0.8c1.2,0.3,2.3,0.7,3.5,0.5C78.8,356.6,78,351.1,78.4,347.7
			z"/>
		<path fill="#F5BE40" d="M71.8,343.7c-9.6-10.6-20.8-19.8-33.5-26.4c-2.1-1.1-4.3-2.1-6.6-1.9c-0.4,0-0.9,0.2-1.1,0.5
			c-0.5,0.8,0.5,1.7,1.4,2.1c4.7,2.2,8.8,5.9,11.5,10.4c1,1.7,1.8,3.5,2.8,5.1c1.7,2.9,4,5.5,6.4,7.9c2.5,2.6,5.3,5.2,8.6,6.8
			c3,1.4,6.4,2,9.7,1.6c0.9-0.1,2.1-0.2,2.6-1.1C74.4,347.2,72.7,344.7,71.8,343.7z"/>
		<path fill="#FFDD63" d="M77.6,338.5c-3.3,0.8-6.8,8.3-8.9,13.4c-1.2,2.9-3.5,4.9-1.7,7.6c1.2,1.8,11.9,10.9,16.4,7.6
			c3.2-2.4,3.8-5.3,4.6-8.6c0.5-1.9,3-9.9,2.4-12.2C89.9,344.4,81.1,337.7,77.6,338.5z"/>
		<path fill="#F5BE40" d="M83.4,367.1c3.2-2.4,3.8-5.3,4.6-8.6c0.5-1.9,3-9.9,2.4-12.2c0-0.2-0.2-0.4-0.4-0.7
			c-0.2,0-0.4,0.1-0.5,0.2c-0.3,0.3-0.5,0.8-0.6,1.2c-0.7,2.4-1.6,4.8-3.4,6.4c-2,1.9-4.8,2.6-7.4,2.7c-2.7,0.1-5.4-0.4-8.1-0.6
			c-0.8-0.1-1.6-0.1-2.4,0.1c-0.4,0.1-0.8,0.3-1.1,0.5c-0.4,1.1-0.4,2.1,0.4,3.3C68.2,361.3,78.9,370.4,83.4,367.1z"/>
	</g>
</g>
</svg>
